<svg width="375" height="44" viewBox="0 0 375 44" fill="none" xmlns="http://www.w3.org/2000/svg">
<rect opacity="0.35" x="336.833" y="17.8333" width="21" height="10.3333" rx="2.16667" stroke="black"/>
<path opacity="0.4" d="M359.333 21V25C360.138 24.6612 360.661 23.8731 360.661 23C360.661 22.1269 360.138 21.3388 359.333 21Z" fill="black"/>
<rect x="338.333" y="19.3333" width="18" height="7.33333" rx="1.33333" fill="black"/>
<path fill-rule="evenodd" clip-rule="evenodd" d="M323.667 19.6152C325.892 19.6152 328.031 20.4694 329.644 22.001C329.765 22.1192 329.959 22.1177 330.079 21.9976L331.239 20.8273C331.3 20.7664 331.334 20.6839 331.333 20.598C331.333 20.5122 331.298 20.43 331.237 20.3698C327.005 16.3176 320.329 16.3176 316.097 20.3698C316.035 20.43 316.001 20.5121 316 20.5979C315.999 20.6838 316.033 20.7663 316.094 20.8273L317.255 21.9976C317.374 22.1179 317.568 22.1194 317.69 22.001C319.302 20.4693 321.442 19.6151 323.667 19.6152ZM323.667 23.4227C324.889 23.4227 326.068 23.8766 326.974 24.6964C327.097 24.8127 327.29 24.8102 327.409 24.6907L328.569 23.5204C328.63 23.459 328.663 23.3757 328.663 23.2892C328.662 23.2026 328.626 23.1201 328.564 23.0599C325.805 20.4955 321.532 20.4955 318.773 23.0599C318.71 23.1201 318.675 23.2027 318.674 23.2892C318.673 23.3758 318.707 23.4591 318.768 23.5204L319.927 24.6907C320.047 24.8102 320.24 24.8127 320.362 24.6964C321.268 23.8772 322.446 23.4232 323.667 23.4227ZM325.989 25.9846C325.991 26.0713 325.957 26.155 325.895 26.2158L323.89 28.2378C323.831 28.2972 323.751 28.3307 323.667 28.3307C323.583 28.3307 323.503 28.2972 323.445 28.2378L321.439 26.2158C321.377 26.155 321.343 26.0713 321.345 25.9845C321.347 25.8977 321.384 25.8155 321.449 25.7574C322.729 24.6751 324.605 24.6751 325.886 25.7574C325.95 25.8156 325.988 25.8978 325.989 25.9846Z" fill="black"/>
<path fill-rule="evenodd" clip-rule="evenodd" d="M310 17.6667H309C308.448 17.6667 308 18.1144 308 18.6667V27.3333C308 27.8856 308.448 28.3333 309 28.3333H310C310.552 28.3333 311 27.8856 311 27.3333V18.6667C311 18.1144 310.552 17.6667 310 17.6667ZM304.333 20H305.333C305.886 20 306.333 20.4477 306.333 21V27.3333C306.333 27.8856 305.886 28.3333 305.333 28.3333H304.333C303.781 28.3333 303.333 27.8856 303.333 27.3333V21C303.333 20.4477 303.781 20 304.333 20ZM300.667 22.3333H299.667C299.114 22.3333 298.667 22.781 298.667 23.3333V27.3333C298.667 27.8856 299.114 28.3333 299.667 28.3333H300.667C301.219 28.3333 301.667 27.8856 301.667 27.3333V23.3333C301.667 22.781 301.219 22.3333 300.667 22.3333ZM296 24.3333H295C294.448 24.3333 294 24.781 294 25.3333V27.3333C294 27.8856 294.448 28.3333 295 28.3333H296C296.552 28.3333 297 27.8856 297 27.3333V25.3333C297 24.781 296.552 24.3333 296 24.3333Z" fill="black"/>
<path d="M37.1341 28.2563C36.1673 28.2563 35.3445 27.9951 34.6658 27.4727C33.9871 26.9453 33.5696 26.2471 33.4134 25.3779H35.2957C35.4178 25.7783 35.6424 26.0957 35.9695 26.3301C36.3016 26.5596 36.6946 26.6743 37.1487 26.6743C37.9202 26.6743 38.5232 26.335 38.9578 25.6562C39.3924 24.9727 39.6097 24.0254 39.6097 22.8145H39.5437H39.5071H39.4852C39.2361 23.3174 38.8724 23.708 38.3938 23.9863C37.9153 24.2598 37.366 24.3965 36.7459 24.3965C35.74 24.3965 34.9075 24.0645 34.2483 23.4004C33.594 22.7363 33.2669 21.8965 33.2669 20.8809C33.2669 19.7969 33.6331 18.9082 34.3655 18.2148C35.1028 17.5166 36.0452 17.1675 37.1927 17.1675C37.9642 17.1675 38.6478 17.3457 39.2435 17.7021C39.8392 18.0586 40.3152 18.5762 40.6717 19.2549C41.1697 20.1387 41.4187 21.252 41.4187 22.5947C41.4187 24.3721 41.0403 25.7612 40.2835 26.7622C39.5267 27.7583 38.4769 28.2563 37.1341 28.2563ZM35.7059 22.3164C36.0965 22.7021 36.5945 22.895 37.2 22.895C37.8055 22.895 38.306 22.7021 38.7015 22.3164C39.097 21.9307 39.2947 21.4424 39.2947 20.8516C39.2947 20.2559 39.0945 19.7554 38.6941 19.3501C38.2937 18.9448 37.7981 18.7422 37.2073 18.7422C36.6165 18.7422 36.1209 18.9424 35.7205 19.3428C35.3201 19.7383 35.1199 20.2314 35.1199 20.8223C35.1199 21.4277 35.3152 21.9258 35.7059 22.3164ZM44.4366 26.8794C44.0948 26.8794 43.8141 26.7695 43.5943 26.5498C43.3746 26.3301 43.2647 26.0542 43.2647 25.7222C43.2647 25.3853 43.3746 25.1094 43.5943 24.8945C43.8141 24.6748 44.0948 24.5649 44.4366 24.5649C44.7833 24.5649 45.0641 24.6748 45.2789 24.8945C45.4986 25.1094 45.6085 25.3853 45.6085 25.7222C45.6085 26.0542 45.4986 26.3301 45.2789 26.5498C45.0641 26.7695 44.7833 26.8794 44.4366 26.8794ZM44.4366 21.3862C44.0948 21.3862 43.8141 21.2788 43.5943 21.064C43.3746 20.8442 43.2647 20.5684 43.2647 20.2363C43.2647 19.8994 43.3746 19.6235 43.5943 19.4087C43.8141 19.189 44.0948 19.0791 44.4366 19.0791C44.7833 19.0791 45.0641 19.189 45.2789 19.4087C45.4986 19.6235 45.6085 19.8994 45.6085 20.2363C45.6085 20.5684 45.4986 20.8442 45.2789 21.064C45.0641 21.2788 44.7833 21.3862 44.4366 21.3862ZM52.6107 28V26.0298H47.4472V24.3452C48.3065 22.7632 49.7421 20.4585 51.7538 17.4312H54.4198V24.4331H55.848V26.0298H54.4198V28H52.6107ZM49.1977 24.3672V24.4771H52.64V18.9692H52.5375C51.3949 20.6587 50.2816 22.458 49.1977 24.3672ZM59.8767 28V19.3354H59.7521L57.1228 21.1812V19.3647L59.884 17.4312H61.7663V28H59.8767Z" fill="black"/>
</svg>
