<svg width="375" height="83" viewBox="0 0 375 83" fill="none" xmlns="http://www.w3.org/2000/svg">
<g clip-path="url(#clip0_103_164)" filter="url(#filter0_b_103_164)">
<rect width="375" height="83" fill="#1E1E1E" fill-opacity="0.75"/>
<g clip-path="url(#clip1_103_164)">
<path d="M32 24.3242C32 24.5928 32.0967 24.8291 32.3008 25.0332L40.8193 33.3584C41.002 33.5518 41.2383 33.6484 41.5176 33.6484C42.0762 33.6484 42.5059 33.2295 42.5059 32.6709C42.5059 32.3916 42.3877 32.1553 42.2158 31.9727L34.3955 24.3242L42.2158 16.6758C42.3877 16.4932 42.5059 16.2461 42.5059 15.9775C42.5059 15.4189 42.0762 15 41.5176 15C41.2383 15 41.002 15.0967 40.8193 15.2793L32.3008 23.6152C32.0967 23.8086 32 24.0557 32 24.3242Z" fill="#0A84FF"/>
<path d="M117.506 24.3242C117.506 24.5928 117.409 24.8291 117.205 25.0332L108.687 33.3584C108.504 33.5518 108.268 33.6484 107.988 33.6484C107.43 33.6484 107 33.2295 107 32.6709C107 32.3916 107.118 32.1553 107.29 31.9727L115.11 24.3242L107.29 16.6758C107.118 16.4932 107 16.2461 107 15.9775C107 15.4189 107.43 15 107.988 15C108.268 15 108.504 15.0967 108.687 15.2793L117.205 23.6152C117.409 23.8086 117.506 24.0557 117.506 24.3242Z" fill="#0A84FF"/>
<path d="M187.528 27.834C187.99 27.834 188.388 27.4473 188.388 26.9961V15.9639L188.323 14.3525L189.043 15.1152L190.676 16.8555C190.826 17.0273 191.041 17.1133 191.256 17.1133C191.696 17.1133 192.04 16.791 192.04 16.3506C192.04 16.125 191.943 15.9531 191.782 15.792L188.151 12.29C187.937 12.0752 187.754 12 187.528 12C187.313 12 187.131 12.0752 186.905 12.29L183.274 15.792C183.113 15.9531 183.027 16.125 183.027 16.3506C183.027 16.791 183.35 17.1133 183.801 17.1133C184.005 17.1133 184.241 17.0273 184.392 16.8555L186.014 15.1152L186.744 14.3525L186.68 15.9639V26.9961C186.68 27.4473 187.066 27.834 187.528 27.834ZM181.373 36.2451H193.694C195.939 36.2451 197.067 35.1279 197.067 32.915V22.1943C197.067 19.9814 195.939 18.8643 193.694 18.8643H190.697V20.5938H193.662C194.726 20.5938 195.338 21.1738 195.338 22.291V32.8184C195.338 33.9355 194.726 34.5156 193.662 34.5156H181.395C180.32 34.5156 179.729 33.9355 179.729 32.8184V22.291C179.729 21.1738 180.32 20.5938 181.395 20.5938H184.37V18.8643H181.373C179.128 18.8643 178 19.9814 178 22.1943V32.915C178 35.1279 179.128 36.2451 181.373 36.2451Z" fill="#0A84FF"/>
<path d="M251 32.165C251 33.0459 251.58 33.3896 252.214 33.3896C252.579 33.3896 252.891 33.1748 253.299 32.9277C254.48 32.1221 255.941 31.6279 257.435 31.6387C258.981 31.6494 260.518 32.2188 261.721 33.3789C262.193 33.8086 262.537 33.9482 262.935 33.9482C263.321 33.9482 263.676 33.8086 264.138 33.3789C265.341 32.2295 266.877 31.6494 268.435 31.6387C269.928 31.6279 271.378 32.1221 272.56 32.9277C272.968 33.1748 273.279 33.3896 273.655 33.3896C274.278 33.3896 274.858 33.0459 274.858 32.165V17.5879C274.858 17.4053 274.848 17.2549 274.729 17.0723C273.773 15.4072 271.346 14 268.392 14C266.05 14 264.02 14.9346 262.935 16.2559C261.85 14.9346 259.809 14 257.478 14C254.513 14 252.085 15.4072 251.129 17.0723C251.021 17.2549 251 17.4053 251 17.5879V32.165ZM252.729 31.252V17.835C253.6 16.5781 255.49 15.7295 257.478 15.7295C259.519 15.7295 261.302 16.5889 262.064 17.8994V31.4346C260.969 30.5645 259.261 29.9092 257.478 29.9092C255.608 29.9092 253.868 30.4355 252.729 31.252ZM263.794 31.4346V17.8994C264.557 16.5889 266.351 15.7295 268.392 15.7295C270.368 15.7295 272.259 16.5781 273.129 17.835V31.252C271.99 30.4355 270.25 29.9092 268.392 29.9092C266.598 29.9092 264.89 30.5645 263.794 31.4346Z" fill="#0A84FF"/>
<path d="M329.373 30.5312H331.21V32.1748C331.21 34.3877 332.327 35.5049 334.583 35.5049H345.368C347.603 35.5049 348.73 34.3877 348.73 32.1748V21.3037C348.73 19.0908 347.603 17.9736 345.368 17.9736H343.521V16.3301C343.521 14.1172 342.393 13 340.158 13H329.373C327.117 13 326 14.1172 326 16.3301V27.2012C326 29.4141 327.117 30.5312 329.373 30.5312ZM329.395 28.8018C328.32 28.8018 327.729 28.2217 327.729 27.1045V16.4268C327.729 15.3096 328.32 14.7295 329.395 14.7295H340.126C341.189 14.7295 341.791 15.3096 341.791 16.4268V17.9736H334.583C332.327 17.9736 331.21 19.0801 331.21 21.3037V28.8018H329.395ZM334.604 33.7754C333.541 33.7754 332.939 33.1953 332.939 32.0781V21.4004C332.939 20.2832 333.541 19.7031 334.604 19.7031H345.336C346.399 19.7031 347.001 20.2832 347.001 21.4004V32.0781C347.001 33.1953 346.399 33.7754 345.336 33.7754H334.604Z" fill="#0A84FF"/>
</g>
<rect x="121" y="70" width="134" height="5" rx="2.5" fill="white"/>
</g>
<defs>
<filter id="filter0_b_103_164" x="-20" y="-20" width="415" height="123" filterUnits="userSpaceOnUse" color-interpolation-filters="sRGB">
<feFlood flood-opacity="0" result="BackgroundImageFix"/>
<feGaussianBlur in="BackgroundImageFix" stdDeviation="10"/>
<feComposite in2="SourceAlpha" operator="in" result="effect1_backgroundBlur_103_164"/>
<feBlend mode="normal" in="SourceGraphic" in2="effect1_backgroundBlur_103_164" result="shape"/>
</filter>
<clipPath id="clip0_103_164">
<rect width="375" height="83" fill="white"/>
</clipPath>
<clipPath id="clip1_103_164">
<rect width="375" height="49" fill="white"/>
</clipPath>
</defs>
</svg>
